<?xml version="1.0" encoding="utf-8"?>
<!-- Generator: Adobe Illustrator 21.0.2, SVG Export Plug-In . SVG Version: 6.00 Build 0)  -->
<svg version="1.1" id="Layer_1" xmlns="http://www.w3.org/2000/svg" xmlns:xlink="http://www.w3.org/1999/xlink" x="0px" y="0px"
	 viewBox="0 0 20 20" style="enable-background:new 0 0 20 20;" xml:space="preserve">
<style type="text/css">
	.st0{fill:#231F20;}
</style>
<g>
	<circle class="st0" cx="10" cy="10.2" r="1.9"/>
	<path class="st0" d="M10,0C4.5,0,0,4.5,0,10s4.5,10,10,10s10-4.5,10-10C19.9,4.5,15.5,0,10,0z M16.3,12.9c0,2-1.6,3.6-3.6,3.6H7.3
		c-2,0-3.6-1.6-3.6-3.6V7.5c0-2,1.6-3.6,3.6-3.6h5.5c2,0,3.6,1.6,3.6,3.6v5.4H16.3z"/>
	<path class="st0" d="M12.4,5.5H7.6c-1.2,0-2.2,1-2.2,2.2v4.8c0,1.2,1,2.2,2.2,2.2h4.8c1.2,0,2.2-1,2.2-2.2V7.7
		C14.7,6.5,13.7,5.5,12.4,5.5z M10,13.4c-1.8,0-3.2-1.5-3.2-3.2C6.8,8.4,8.2,7,10,7s3.2,1.5,3.2,3.2C13.2,12,11.8,13.4,10,13.4z
		 M13,7.8c-0.4,0-0.7-0.3-0.7-0.7c0-0.4,0.3-0.7,0.7-0.7s0.7,0.3,0.7,0.7S13.4,7.8,13,7.8z"/>
</g>
</svg>
