<?xml version="1.0" encoding="utf-8"?>
<!-- Generator: Adobe Illustrator 21.0.2, SVG Export Plug-In . SVG Version: 6.00 Build 0)  -->
<svg version="1.1" id="Layer_1" xmlns="http://www.w3.org/2000/svg" xmlns:xlink="http://www.w3.org/1999/xlink" x="0px" y="0px"
	 viewBox="0 0 19.9 19.9" style="enable-background:new 0 0 19.9 19.9;" xml:space="preserve">
<style type="text/css">
	.st0{fill:#231F20;}
</style>
<g id="Layer_2">
</g>
<g id="Layer_1_1_">
	<path class="st0" d="M10,0C4.5,0,0,4.5,0,10s4.5,10,10,10s10-4.5,10-10C19.9,4.5,15.5,0,10,0z M7.1,14.6h-2V8.3h2V14.6z M6.1,7.5
		L6.1,7.5C5.4,7.5,4.9,7,4.9,6.4s0.5-1.1,1.2-1.1s1.2,0.5,1.2,1.1S6.8,7.5,6.1,7.5z M15,14.6h-2.2v-3.3c0-0.9-0.4-1.4-1.1-1.4
		c-0.6,0-0.9,0.4-1.1,0.8c-0.1,0.1,0,0.3,0,0.5v3.4H8.3c0,0,0-5.8,0-6.3h2.2v1c0.1-0.4,0.8-1.1,2-1.1c1.4,0,2.5,0.9,2.5,2.9V14.6z"
		/>
</g>
<g id="Layer_3">
</g>
</svg>
