<?xml version="1.0" encoding="utf-8"?>
<!-- Generator: Adobe Illustrator 21.0.2, SVG Export Plug-In . SVG Version: 6.00 Build 0)  -->
<svg version="1.1" id="Layer_1" xmlns="http://www.w3.org/2000/svg" xmlns:xlink="http://www.w3.org/1999/xlink" x="0px" y="0px"
	 viewBox="0 0 200 23.9" style="enable-background:new 0 0 200 23.9;" xml:space="preserve">
<style type="text/css">
	.st0{fill:#231F20;}
</style>
<g id="Layer_2">
</g>
<g id="Layer_1_1_">
	<g>
		<path class="st0" d="M167.7,0c-6.6,0-10.5,4.5-10.5,11.9c0,7.2,3.7,11.9,9.4,11.9c2.9,0,4.6-1.2,5.8-4l0.1-0.3h0.3l0.3,3.8h3.6V10
			h-8.1v3.8h2.6V15c0,1.9-0.9,4.8-3.2,4.8c-3.5,0-3.5-5.9-3.5-7.9c0-3.5,0.4-7.5,3.5-7.5c2.3,0,2.9,2,3.2,3.6l5.2-1.4
			C175.3,2.4,172.2,0,167.7,0z"/>
		<g>
			<path class="st0" d="M13.5,13.7c-0.1,1.9-0.7,5.7-3.1,5.7c-2.5,0-3-2.9-3-7.5s0.5-7.5,3-7.5c1.8,0,2.7,2.3,3,5.9l5.2-1.2
				C18.2,3.6,15.1,0,10.1,0C3.9,0,0,4.6,0,11.9c0,7.5,3.7,11.9,9.8,11.9c6.2,0,7.9-4.4,8.9-8.3L13.5,13.7z"/>
		</g>
		<polygon class="st0" points="146.9,23.8 153.6,23.8 153.6,1.1 147,1.1 147,14 147,14 141.7,1.1 134.4,1.1 134.4,23.8 140.2,23.8 
			140.2,9 140.4,9 		"/>
		<polygon class="st0" points="100.6,8.1 100.6,23.8 107.5,23.8 106.8,1 97.7,1 94.9,15.1 94.6,15.1 91.8,1 82.7,1 81.5,23.8 
			87.4,23.8 87.8,8.1 88,8.1 91.2,23.8 97.1,23.8 100.3,8.1 		"/>
		<path class="st0" d="M55,1.1H43.4v4.4l4.8-0.4v10.6c0,3-1,3.7-3.4,3.9v4.3c0.3,0,0.5,0,0.8,0l0,0c4,0,6.2-0.5,7.4-1.6
			c1.4-1.2,2-3.4,2-7.2V1.1z"/>
		<g>
			<path class="st0" d="M192.9,22l0.4,1.9h6.8L193.7,1h-7.9l-5.6,22.9h6l0.4-1.9H192.9z M189.7,7.8h0.1l2.1,9.8h-4.4L189.7,7.8z"/>
		</g>
		<g>
			<path class="st0" d="M123.9,22l0.4,1.9h6.8L124.7,1h-7.9l-5.6,22.9h6l0.4-1.9H123.9z M120.7,7.8L120.7,7.8l2.2,9.8h-4.4
				L120.7,7.8z"/>
		</g>
		<g>
			<path class="st0" d="M70.9,22l0.4,1.9h6.8L71.7,1h-7.9l-5.6,22.9h6l0.4-1.9H70.9z M67.7,7.8L67.7,7.8l2.2,9.8h-4.4L67.7,7.8z"/>
		</g>
		<g>
			<path class="st0" d="M33.9,22l0.4,1.9H41L34.7,1h-7.9l-5.6,22.9h6l0.4-1.9H33.9z M30.7,7.8h0.1l2.1,9.8h-4.4L30.7,7.8z"/>
		</g>
	</g>
</g>
<g id="Layer_3">
</g>
</svg>
